<?xml version="1.0" standalone="no"?>
<!DOCTYPE svg PUBLIC "-//W3C//DTD SVG 20010904//EN"
 "http://www.w3.org/TR/2001/REC-SVG-20010904/DTD/svg10.dtd">
<svg version="1.0" xmlns="http://www.w3.org/2000/svg"
 width="300.000000pt" height="300.000000pt" viewBox="0 0 300.000000 300.000000"
 preserveAspectRatio="xMidYMid meet">

<g transform="translate(0.000000,300.000000) scale(0.100000,-0.100000)"
fill="#000000" stroke="none">
<path d="M1443 2820 c-108 -49 -111 -205 -5 -255 l32 -16 2 -89 c0 -50 1 -95
2 -102 1 -8 -28 -17 -76 -25 -64 -11 -178 -46 -250 -77 -12 -6 -21 1 -34 26
-9 18 -27 47 -40 65 -20 27 -22 35 -13 62 16 45 -14 101 -63 119 -33 13 -41
12 -75 -4 -41 -20 -64 -66 -55 -110 6 -32 46 -70 80 -77 23 -5 35 -18 60 -70
18 -36 32 -66 32 -69 0 -2 -25 -26 -56 -52 l-56 -49 -36 36 c-20 19 -55 46
-78 60 -38 24 -40 27 -40 74 0 114 -124 183 -222 123 -86 -52 -80 -199 9 -245
37 -20 109 -22 137 -4 18 11 26 7 83 -44 34 -31 66 -57 71 -57 15 0 8 -21 -27
-73 -64 -97 -52 -91 -120 -62 -33 13 -65 25 -70 25 -6 0 -16 13 -22 29 -27 73
-120 79 -157 10 -17 -32 -18 -40 -6 -68 18 -44 61 -65 104 -51 30 10 39 7 87
-21 30 -17 61 -35 69 -39 17 -9 16 -21 -8 -109 l-17 -63 -83 -2 c-76 -1 -84 1
-98 22 -23 35 -75 62 -119 62 -150 0 -197 -203 -62 -269 24 -12 52 -21 63 -21
39 1 101 38 123 74 l23 36 72 0 73 0 6 -81 c8 -96 31 -194 63 -268 30 -68 30
-77 -4 -95 -15 -8 -35 -23 -46 -35 -16 -18 -26 -20 -77 -14 -55 5 -59 4 -88
-25 -54 -54 -37 -138 34 -168 17 -7 43 -10 56 -7 36 9 76 51 83 88 5 25 14 36
39 46 17 7 44 21 59 31 l27 19 23 -28 c13 -15 49 -54 80 -86 32 -32 58 -61 58
-66 0 -4 -12 -18 -26 -32 -15 -13 -42 -48 -61 -77 -21 -33 -41 -52 -51 -51
-45 4 -67 -4 -98 -35 -29 -29 -34 -41 -34 -81 0 -40 5 -52 34 -81 41 -41 92
-46 144 -14 47 29 68 102 43 149 -8 14 0 25 39 59 27 23 57 56 67 72 9 17 22
30 29 30 6 0 49 -18 95 -39 75 -36 124 -50 254 -78 40 -8 40 -8 37 -50 -2 -23
1 -66 8 -96 11 -53 10 -55 -20 -87 -74 -79 1 -196 108 -168 36 10 72 58 72 96
0 33 -29 78 -58 91 -20 10 -23 16 -17 39 4 15 8 57 9 94 1 37 5 70 7 73 3 2
39 11 80 19 423 81 721 457 696 881 -18 310 -194 577 -474 718 -61 31 -203 74
-264 80 l-43 4 -1 104 0 104 36 36 c79 79 46 208 -62 239 -44 13 -47 13 -96
-10z m252 -574 l40 -13 -40 1 c-22 0 -54 -3 -72 -7 -29 -8 -31 -6 -26 12 6 24
36 26 98 7z m105 -38 c10 -6 7 -7 -10 -2 -14 3 -32 11 -40 16 -10 6 -7 7 10 2
14 -3 32 -11 40 -16z m-100 -27 c0 -5 -7 -14 -15 -21 -24 -20 -13 -34 31 -41
l39 -5 -29 -12 c-16 -7 -42 -24 -58 -37 -50 -42 -88 -28 -53 19 8 11 15 34 15
51 0 21 6 33 23 41 28 15 47 16 47 5z m184 -22 c-6 -11 -45 -12 -71 -2 -14 6
-10 9 17 13 40 7 62 2 54 -11z m-567 -204 c29 -20 46 -75 34 -108 -22 -58 -99
-75 -148 -33 -61 52 -21 156 60 156 18 0 42 -7 54 -15z m593 -55 c0 -14 5 -31
12 -38 9 -9 7 -13 -6 -18 -28 -11 -116 2 -133 19 -15 14 -15 18 0 41 14 21 23
24 72 23 52 -1 55 -2 55 -27z m-242 -59 c26 -45 49 -53 54 -19 5 34 27 33 42
-3 8 -20 22 -34 33 -35 10 0 32 -1 50 -2 29 -2 31 -4 24 -29 -11 -42 -31 -49
-101 -35 -56 12 -64 11 -94 -6 -32 -19 -33 -19 -56 0 -19 15 -23 28 -22 56 2
20 10 45 20 55 11 12 13 21 6 25 -16 10 -34 48 -27 56 12 11 48 -20 71 -63z
m384 1 c15 -49 15 -59 3 -71 -19 -19 -45 2 -45 36 0 13 -5 33 -11 44 -13 26
-5 49 18 49 13 0 23 -15 35 -58z m-532 -157 c37 -19 60 -63 60 -114 0 -75 -40
-120 -114 -128 -60 -6 -106 22 -130 80 -18 44 -18 48 -2 91 29 76 114 108 186
71z m556 -42 c12 -12 41 -24 65 -28 36 -6 48 -14 67 -43 13 -19 28 -59 34 -88
6 -30 15 -51 20 -48 6 4 7 -10 3 -33 -17 -97 -39 -165 -82 -253 -40 -81 -60
-109 -142 -190 -74 -74 -114 -105 -176 -137 -84 -43 -200 -83 -241 -83 -24 0
-24 1 -24 98 1 96 1 97 18 69 26 -42 47 -43 120 -5 65 32 68 35 94 101 16 41
39 78 58 94 28 23 30 29 24 69 -8 57 23 124 72 153 62 37 82 129 25 118 -44
-9 -84 31 -125 128 -36 84 -40 119 -10 94 8 -6 33 -51 56 -98 23 -47 43 -88
44 -90 14 -18 154 76 154 104 0 16 -30 35 -56 35 -26 0 -54 30 -54 58 0 27 6
24 56 -25z m-495 -532 c-4 -64 -4 -64 -17 -32 -25 59 -28 124 -8 187 l18 59 6
-75 c3 -41 3 -104 1 -139z m-290 140 c49 -50 37 -121 -27 -147 -29 -12 -39
-12 -68 0 -64 26 -76 97 -27 147 40 39 82 39 122 0z"/>
<path d="M1976 1118 c-28 -26 -49 -114 -25 -106 23 7 59 69 59 99 0 35 -2 35
-34 7z"/>
</g>
</svg>
